<?xml version="1.0" encoding="UTF-8"?><svg id="Layer_2" xmlns="http://www.w3.org/2000/svg" xmlns:xlink="http://www.w3.org/1999/xlink" viewBox="0 0 1210.73 688.55"><defs><style>.cls-1{fill:#0f5153;}.cls-2{fill:#82c241;}.cls-3{fill:none;stroke:url(#linear-gradient);stroke-linecap:round;stroke-linejoin:round;stroke-width:15px;}</style><linearGradient id="linear-gradient" x1="412.55" y1="160.77" x2="798.17" y2="160.77" gradientUnits="userSpaceOnUse"><stop offset="0" stop-color="#0f5153"/><stop offset="1" stop-color="#82c241"/></linearGradient></defs><g id="Layer_1-2"><path class="cls-1" d="m327.74,534.46h30.28v96.26c0,42.8-28.19,57.84-62.24,57.84-16.91,0-31.74-3.95-43.01-8.76l1.87-27.14c11.28,7.5,25.48,12.31,41.35,12.31,18.59,0,31.74-8.15,31.74-30.07v-3.55c-8.14,6.48-18.16,11.06-32.16,11.06-24.85,0-51.79-17.54-51.79-54.9s27.36-55.13,51.99-55.13c13.79,0,24.02,3.95,31.95,10.64v-8.56Zm0,70.57v-34.86c-6.68-6.9-15.66-12.12-26.94-12.12-15.24,0-26.51,11.9-26.51,29.46s11.28,29.44,26.51,29.44c11.49,0,20.26-4.81,26.94-11.92Z"/><path class="cls-1" d="m379.48,501.45c0-10.23,8.35-18.78,18.79-18.78s18.59,8.35,18.59,18.78-8.35,18.6-18.59,18.6-18.79-8.35-18.79-18.6Zm33.83,33v111.09h-30.28v-111.09h30.28Z"/><path class="cls-1" d="m546.73,575.81v69.73h-30.28v-61.81c0-14.61-7.93-23.59-21.72-23.59-11.48,0-19.83,5.01-26.1,12.32v73.08h-30.27v-111.09h30.27v13.77c9.39-9.8,22.97-15.85,38.42-15.85,26.52,0,39.67,16.71,39.67,43.43Z"/><path class="cls-1" d="m671.97,598.98h-76.01c3.34,14.4,14.2,22.35,30.07,22.35,14.63,0,25.27-3.14,38.01-9.39l1.67,25.89c-11.29,5.62-24.65,9.82-41.98,9.82-32.79,0-58.89-20.27-58.89-57.43,0-35.08,26.93-57.84,58.67-57.84,33.62,0,50.95,19.82,50.95,49.06,0,5.85-1.04,11.69-2.51,17.54Zm-26.3-19.21v-1.67c0-12.31-7.31-21.51-21.51-21.51-12.73,0-24.22,8.35-27.77,23.18h49.28Z"/><path class="cls-1" d="m794.51,598.98h-76.01c3.34,14.4,14.2,22.35,30.07,22.35,14.61,0,25.26-3.14,37.99-9.39l1.67,25.89c-11.27,5.62-24.63,9.82-41.97,9.82-32.78,0-58.89-20.27-58.89-57.43,0-35.08,26.94-57.84,58.68-57.84,33.61,0,50.95,19.82,50.95,49.06,0,5.85-1.05,11.69-2.51,17.54Zm-26.32-19.21v-1.67c0-12.31-7.3-21.51-21.5-21.51-12.74,0-24.22,8.35-27.78,23.18h49.28Z"/><path class="cls-1" d="m897.61,537.39l-4.18,27.77c-6.47-3.77-12.95-5.01-19.83-5.01-10.65,0-20.68,5.01-27.78,15.67v69.73h-30.28v-111.09h30.28v13.36c7.1-9.19,17.54-15.44,31.74-15.44,7.52,0,13.58,1.67,20.05,5.01Z"/><path class="cls-1" d="m1078.4,575.81v69.73h-30.28v-61.81c0-14.61-7.93-23.59-21.72-23.59-11.48,0-19.83,5.01-26.1,12.32v73.08h-30.27v-111.09h30.27v13.77c9.39-9.8,22.97-15.85,38.42-15.85,26.52,0,39.67,16.71,39.67,43.43Z"/><path class="cls-1" d="m1180.45,534.46h30.27v96.26c0,42.8-28.19,57.84-62.22,57.84-16.92,0-31.74-3.95-43.02-8.76l1.88-27.14c11.28,7.5,25.48,12.31,41.35,12.31,18.58,0,31.74-8.15,31.74-30.07v-3.55c-8.15,6.48-18.17,11.06-32.16,11.06-24.84,0-51.79-17.54-51.79-54.9s27.35-55.13,52-55.13c13.77,0,24.01,3.95,31.94,10.64v-8.56Zm0,70.57v-34.86c-6.68-6.9-15.67-12.12-26.93-12.12-15.25,0-26.52,11.9-26.52,29.46s11.28,29.44,26.52,29.44c11.48,0,20.25-4.81,26.93-11.92Z"/><path class="cls-1" d="m911.15,501.45c0-10.23,8.35-18.78,18.79-18.78s18.59,8.35,18.59,18.78-8.35,18.6-18.59,18.6-18.79-8.35-18.79-18.6Zm33.83,33v111.09h-30.28v-111.09h30.28Z"/><path class="cls-1" d="m97.93,526.74H31.31v29.85h56.18v25.48H31.31v36.12h66.62v27.36H0v-146.17h97.93v27.36Z"/><path class="cls-1" d="m225.69,575.81v69.73h-30.27v-61.81c0-14.61-7.94-23.59-21.72-23.59-11.49,0-19.84,5.01-26.11,12.32v73.08h-30.28v-111.09h30.28v13.77c9.4-9.8,22.97-15.85,38.42-15.85,26.51,0,39.67,16.71,39.67,43.43Z"/><path class="cls-2" d="m489.72,401.94c15.03,0,27.16,4.6,36.13,10.45l-1.88,18.38c-10.02-7.52-20.88-11.9-32.98-11.9-20.68,0-38.64,14.2-38.64,40.72s17.96,40.7,38.64,40.7c12.1,0,22.96-4.38,32.98-12.31l2.1,17.95c-9.19,6.48-21.31,11.27-36.34,11.27-31.53,0-57-21.49-57-57.61s25.48-57.65,57-57.65Z"/><path class="cls-2" d="m540.43,505.1l2.3-19.21c10.64,9.39,24.43,14.4,39.67,14.4,12.53,0,22.35-6.26,22.35-16.5,0-25.06-63.06-12.51-63.06-50.52,0-20.45,18.16-31.33,39.88-31.33,15.25,0,27.99,4.19,37.18,10.25l-1.47,17.95c-10.44-7.72-22.76-11.69-35.5-11.69-11.48,0-21.09,4.4-21.09,14.42,0,21.72,63.48,11.47,63.48,50.52,0,22.12-19.62,33.82-42.17,33.82-17.54,0-31.74-5.01-41.56-12.1Z"/><path class="cls-2" d="m733.75,446.23v68.9h-19.21v-13.16c-8.77,9.41-21.09,15.24-35.7,15.24-23.81,0-40.31-14.18-40.31-35.49s17.75-35.49,42.81-35.49c11.06,0,22.12,2.49,33.2,6.26v-5.85c0-20.68-14.62-28.81-30.69-28.81-11.69,0-24.65,3.95-34.46,11.9l-1.05-17.54c8.57-5.85,22.55-10.25,38.22-10.25,26.73,0,47.19,13.79,47.19,44.29Zm-19.21,40.09v-19.01c-10.44-4.38-20.67-6.68-31.32-6.68-16.71,0-26.1,8.56-26.1,20.68,0,12.73,10.86,20.45,24.43,20.45,12.53,0,23.18-5.01,32.99-15.44Z"/><path class="cls-2" d="m791.56,515.13l-52.42-111.09h20.88l37.18,80.82,36.96-80.82h20.68l-52.42,111.09h-10.86Z"/><path class="cls-2" d="m1054.79,406.34l-2.91,18.17c-5.64-3.14-10.86-4.6-16.92-4.6-12.53,0-23.39,7.09-31.95,22.12v73.09h-19.21v-111.09h19.21v18.17c7.73-11.92,19.21-20.27,33.84-20.27,6.89,0,12.94,1.47,17.95,4.4Z"/><path class="cls-2" d="m1063.33,505.1l2.3-19.21c10.64,9.39,24.43,14.4,39.67,14.4,12.53,0,22.35-6.26,22.35-16.5,0-25.06-63.06-12.51-63.06-50.52,0-20.45,18.16-31.33,39.88-31.33,15.25,0,27.99,4.19,37.18,10.25l-1.47,17.95c-10.44-7.72-22.76-11.69-35.5-11.69-11.48,0-21.09,4.4-21.09,14.42,0,21.72,63.48,11.47,63.48,50.52,0,22.12-19.62,33.82-42.17,33.82-17.54,0-31.74-5.01-41.56-12.1Z"/><path class="cls-2" d="m107.1,445.17c24.22,5.44,40.71,12.12,40.71,29.66,0,15.03-12.95,24.63-32.57,24.63-1.82,0-3.62-.42-5.43-.58v17.94c1.7.09,3.26.38,5.01.38,29.44,0,52.83-14.81,52.83-43.64,0-27.14-21.09-37.79-43.84-42.8-23.81-5.64-38.01-11.69-38.01-25.48,0-12.94,12.53-20.86,30.28-20.86,16.71,0,31.32,6.46,42.38,15.44l1.26-21.31c-11.07-6.89-24.02-11.69-43.23-11.69-27.56,0-50.32,13.79-50.32,39.05,0,22.35,17.95,34.04,40.93,39.26Z"/><path class="cls-2" d="m367.6,501.45c0-.47.12-.92.14-1.38-18.31-1.13-32.01-12.41-34.38-33.19h81.23c1.88-6.68,2.29-12.31,2.29-17.95,0-27.36-16.71-47-47.18-47s-56.18,24.02-56.18,58.26c0,37.81,25.68,57,56.38,57,.77,0,1.42-.14,2.17-.16-2.79-4.57-4.48-9.87-4.48-15.59Zm2.31-83.42c18.38,0,28.6,12.94,28.6,28.19,0,2.08-.2,3.55-.41,5.42h-64.53c3.13-20.25,18.16-33.61,36.33-33.61Z"/><path class="cls-2" d="m903.39,516.38c-2.55-4.43-4.12-9.47-4.12-14.93,0-1.28.23-2.5.38-3.74-12.16-4.48-20.69-14.85-22.52-30.83h81.23c1.88-6.68,2.29-12.31,2.29-17.95,0-27.36-16.71-47-47.18-47s-56.18,24.02-56.18,58.26,20.16,52.29,46.09,56.18Zm10.29-98.35c18.38,0,28.6,12.94,28.6,28.19,0,2.08-.2,3.55-.41,5.42h-64.53c3.13-20.25,18.16-33.61,36.33-33.61Z"/><path class="cls-2" d="m211.04,525.93v-22.3c8.35,7.74,20.25,13.57,34.04,13.57,28.81,0,52.83-20.25,52.83-57.61s-23.18-57.65-50.95-57.65c-15.03,0-27.36,6.27-35.92,15.26v-13.16h-19.21v116.88c7.16.61,13.6,2.27,19.21,5.02Zm0-89.12c8.35-12.31,19.84-17.95,32.37-17.95,20.05,0,35.08,15.67,35.08,40.72s-15.03,40.7-34.88,40.7c-13.16,0-23.8-5.22-32.57-16.28v-47.2Z"/><path class="cls-3" d="m624.72,43.77l-1.43,36.77c-.4,10.23-11.53,16.64-20.38,11.49-21.83-12.7-45.99-20.68-70.4-20.68-20.85,0-37.46,6.83-37.46,20.04,0,19.59,28.1,25.1,73.21,39.59,32.36,10.23,74.93,31.06,74.93,86,0,65.14-54.91,97.06-122.61,97.06-37.08,0-68-7.55-93.04-19.59-5.08-2.44-7.94-7.94-7.42-13.55l4.43-47.7c.97-10.39,12.69-16,21.3-10.1,22.45,15.39,50.33,25.39,77.71,25.39s45.55-8.11,45.55-27.25c0-22.57-36.17-31.51-77.48-45.13-33.63-11.09-68.97-34.08-68.97-81.74,0-57.93,53.64-86.87,111.97-86.87h-.29,242.57c7.6,0,13.77,6.16,13.77,13.77v38.15c0,7.6-6.16,13.77-13.77,13.77h-89.84c-7.6,0-13.77,6.16-13.77,13.77v23.28c0,7.6,6.16,13.77,13.77,13.77h67.06c7.6,0,13.77,6.16,13.77,13.77v32.91c0,7.6-6.16,13.77-13.77,13.77h-67.06c-7.6,0-13.77,6.16-13.77,13.77v36.4c0,7.6,6.16,13.77,13.77,13.77h89.84c7.6,0,13.77,6.16,13.77,13.77v38.15c0,7.6-6.16,13.77-13.77,13.77h-146.73"/></g></svg>