<?xml version="1.0" encoding="UTF-8"?><svg id="Layer_2" xmlns="http://www.w3.org/2000/svg" xmlns:xlink="http://www.w3.org/1999/xlink" viewBox="0 0 2117.7 599.25"><defs><style>.cls-1{stroke:#e6e6e6;stroke-miterlimit:10;stroke-width:3px;}.cls-1,.cls-2{fill:none;stroke-linecap:round;}.cls-3{fill:#0f5153;}.cls-4{fill:#82c241;}.cls-2{stroke:url(#linear-gradient);stroke-linejoin:round;stroke-width:15px;}</style><linearGradient id="linear-gradient" x1="0" y1="289.62" x2="385.62" y2="289.62" gradientUnits="userSpaceOnUse"><stop offset="0" stop-color="#0f5153"/><stop offset="1" stop-color="#82c241"/></linearGradient></defs><g id="Layer_1-2"><path class="cls-3" d="m1102.99,321.84h34.8v110.62c0,49.19-32.4,66.46-71.52,66.46-19.43,0-36.47-4.54-49.42-10.07l2.15-31.18c12.96,8.62,29.28,14.14,47.51,14.14,21.36,0,36.47-9.36,36.47-34.55v-4.07c-9.35,7.44-20.87,12.71-36.95,12.71-28.56,0-59.51-20.16-59.51-63.09s31.44-63.35,59.75-63.35c15.85,0,27.6,4.54,36.72,12.22v-9.83Zm0,81.1v-40.06c-7.68-7.93-17.99-13.93-30.96-13.93-17.51,0-30.47,13.67-30.47,33.85s12.96,33.83,30.47,33.83c13.2,0,23.28-5.52,30.96-13.69Z"/><path class="cls-3" d="m1162.45,283.91c0-11.75,9.6-21.59,21.6-21.59s21.36,9.6,21.36,21.59-9.6,21.37-21.36,21.37-21.6-9.6-21.6-21.37Zm38.87,37.92v127.66h-34.8v-127.66h34.8Z"/><path class="cls-3" d="m1354.65,369.36v80.14h-34.8v-71.03c0-16.79-9.11-27.11-24.96-27.11-13.19,0-22.79,5.76-29.99,14.16v83.98h-34.79v-127.66h34.79v15.83c10.79-11.26,26.4-18.22,44.15-18.22,30.48,0,45.59,19.2,45.59,49.91Z"/><path class="cls-3" d="m1498.57,395.98h-87.35c3.84,16.55,16.32,25.68,34.55,25.68,16.81,0,29.04-3.6,43.68-10.79l1.92,29.76c-12.97,6.46-28.33,11.28-48.24,11.28-37.68,0-67.67-23.29-67.67-66,0-40.31,30.95-66.46,67.42-66.46,38.64,0,58.55,22.78,58.55,56.38,0,6.72-1.19,13.44-2.88,20.16Zm-30.22-22.08v-1.92c0-14.14-8.4-24.72-24.72-24.72-14.63,0-27.84,9.6-31.91,26.64h56.63Z"/><path class="cls-3" d="m1639.39,395.98h-87.35c3.84,16.55,16.32,25.68,34.55,25.68,16.79,0,29.03-3.6,43.66-10.79l1.92,29.76c-12.95,6.46-28.31,11.28-48.23,11.28-37.67,0-67.67-23.29-67.67-66,0-40.31,30.96-66.46,67.44-66.46,38.63,0,58.55,22.78,58.55,56.38,0,6.72-1.21,13.44-2.88,20.16Zm-30.25-22.08v-1.92c0-14.14-8.39-24.72-24.71-24.72-14.64,0-27.84,9.6-31.92,26.64h56.63Z"/><path class="cls-3" d="m1757.87,325.21l-4.8,31.91c-7.43-4.33-14.88-5.76-22.79-5.76-12.24,0-23.76,5.76-31.92,18v80.14h-34.8v-127.66h34.8v15.36c8.16-10.56,20.16-17.75,36.47-17.75,8.64,0,15.6,1.92,23.04,5.76Z"/><path class="cls-3" d="m1965.62,369.36v80.14h-34.8v-71.03c0-16.79-9.11-27.11-24.96-27.11-13.19,0-22.79,5.76-29.99,14.16v83.98h-34.79v-127.66h34.79v15.83c10.79-11.26,26.4-18.22,44.15-18.22,30.48,0,45.59,19.2,45.59,49.91Z"/><path class="cls-3" d="m2082.91,321.84h34.79v110.62c0,49.19-32.39,66.46-71.5,66.46-19.44,0-36.47-4.54-49.44-10.07l2.17-31.18c12.96,8.62,29.28,14.14,47.51,14.14,21.35,0,36.47-9.36,36.47-34.55v-4.07c-9.36,7.44-20.88,12.71-36.95,12.71-28.55,0-59.51-20.16-59.51-63.09s31.43-63.35,59.76-63.35c15.83,0,27.59,4.54,36.71,12.22v-9.83Zm0,81.1v-40.06c-7.68-7.93-18-13.93-30.95-13.93-17.52,0-30.48,13.67-30.48,33.85s12.96,33.83,30.48,33.83c13.19,0,23.27-5.52,30.95-13.69Z"/><path class="cls-3" d="m1773.43,283.91c0-11.75,9.6-21.59,21.6-21.59s21.36,9.6,21.36,21.59-9.6,21.37-21.36,21.37-21.6-9.6-21.6-21.37Zm38.87,37.92v127.66h-34.8v-127.66h34.8Z"/><path class="cls-3" d="m838.9,312.97h-76.55v34.3h64.56v29.29h-64.56v41.51h76.55v31.44h-112.54v-167.97h112.54v31.44Z"/><path class="cls-3" d="m985.71,369.36v80.14h-34.79v-71.03c0-16.79-9.13-27.11-24.96-27.11-13.2,0-22.8,5.76-30,14.16v83.98h-34.8v-127.66h34.8v15.83c10.8-11.26,26.4-18.22,44.15-18.22,30.47,0,45.59,19.2,45.59,49.91Z"/><path class="cls-4" d="m1289.13,169.55c17.28,0,31.21,5.29,41.52,12.01l-2.17,21.12c-11.52-8.64-24-13.67-37.9-13.67-23.76,0-44.4,16.32-44.4,46.8s20.64,46.78,44.4,46.78c13.91,0,26.39-5.03,37.9-14.14l2.41,20.63c-10.56,7.44-24.49,12.95-41.76,12.95-36.23,0-65.5-24.7-65.5-66.21s29.28-66.25,65.5-66.25Z"/><path class="cls-4" d="m1347.4,288.1l2.64-22.08c12.23,10.79,28.07,16.55,45.58,16.55,14.4,0,25.68-7.19,25.68-18.96,0-28.8-72.47-14.38-72.47-58.06,0-23.51,20.87-36.01,45.83-36.01,17.52,0,32.17,4.82,42.72,11.77l-1.69,20.63c-12-8.87-26.15-13.44-40.79-13.44-13.19,0-24.24,5.06-24.24,16.57,0,24.96,72.95,13.18,72.95,58.06,0,25.43-22.55,38.86-48.46,38.86-20.16,0-36.47-5.76-47.76-13.91Z"/><path class="cls-4" d="m1569.57,220.45v79.18h-22.08v-15.12c-10.08,10.81-24.24,17.51-41.03,17.51-27.37,0-46.32-16.3-46.32-40.78s20.4-40.78,49.2-40.78c12.71,0,25.43,2.86,38.15,7.19v-6.72c0-23.76-16.8-33.1-35.27-33.1-13.44,0-28.33,4.54-39.6,13.67l-1.21-20.16c9.84-6.72,25.92-11.77,43.92-11.77,30.72,0,54.23,15.85,54.23,50.89Zm-22.08,46.07v-21.84c-12-5.03-23.75-7.68-35.99-7.68-19.2,0-29.99,9.83-29.99,23.76,0,14.63,12.48,23.51,28.07,23.51,14.4,0,26.64-5.76,37.91-17.75Z"/><path class="cls-4" d="m1636,299.62l-60.24-127.66h24l42.72,92.87,42.47-92.87h23.76l-60.24,127.66h-12.48Z"/><path class="cls-4" d="m1938.5,174.61l-3.35,20.88c-6.48-3.6-12.48-5.29-19.44-5.29-14.4,0-26.88,8.15-36.72,25.43v84h-22.08v-127.66h22.08v20.88c8.88-13.69,22.08-23.29,38.88-23.29,7.91,0,14.87,1.69,20.63,5.06Z"/><path class="cls-4" d="m1948.32,288.1l2.64-22.08c12.23,10.79,28.07,16.55,45.58,16.55,14.4,0,25.68-7.19,25.68-18.96,0-28.8-72.47-14.38-72.47-58.06,0-23.51,20.87-36.01,45.83-36.01,17.52,0,32.17,4.82,42.72,11.77l-1.69,20.63c-12-8.87-26.15-13.44-40.79-13.44-13.19,0-24.24,5.06-24.24,16.57,0,24.96,72.95,13.18,72.95,58.06,0,25.43-22.55,38.86-48.46,38.86-20.16,0-36.47-5.76-47.76-13.91Z"/><path class="cls-4" d="m849.43,219.23c27.84,6.25,46.79,13.93,46.79,34.09,0,17.28-14.88,28.31-37.43,28.31-2.1,0-4.16-.48-6.24-.67v20.62c1.95.1,3.75.44,5.76.44,33.83,0,60.71-17.02,60.71-50.15,0-31.18-24.23-43.43-50.38-49.19-27.37-6.48-43.68-13.44-43.68-29.29,0-14.87,14.4-23.98,34.8-23.98,19.2,0,35.99,7.42,48.71,17.75l1.45-24.49c-12.72-7.91-27.6-13.44-49.68-13.44-31.68,0-57.83,15.85-57.83,44.88,0,25.68,20.63,39.12,47.03,45.11Z"/><path class="cls-4" d="m1148.8,283.91c0-.54.14-1.05.16-1.59-21.05-1.3-36.78-14.26-39.51-38.14h93.35c2.17-7.68,2.63-14.14,2.63-20.63,0-31.44-19.2-54.01-54.22-54.01s-64.56,27.6-64.56,66.96c0,43.45,29.51,65.5,64.79,65.5.88,0,1.63-.16,2.5-.18-3.2-5.26-5.15-11.34-5.15-17.92Zm2.65-95.87c21.12,0,32.87,14.87,32.87,32.4,0,2.39-.23,4.07-.47,6.23h-74.15c3.59-23.27,20.87-38.63,41.75-38.63Z"/><path class="cls-4" d="m1764.51,301.07c-2.93-5.09-4.73-10.89-4.73-17.15,0-1.47.26-2.87.43-4.3-13.97-5.15-23.78-17.06-25.88-35.43h93.35c2.17-7.68,2.63-14.14,2.63-20.63,0-31.44-19.2-54.01-54.22-54.01s-64.56,27.6-64.56,66.96,23.17,60.1,52.97,64.56Zm11.82-113.02c21.12,0,32.87,14.87,32.87,32.4,0,2.39-.23,4.07-.47,6.23h-74.15c3.59-23.27,20.87-38.63,41.75-38.63Z"/><path class="cls-4" d="m968.88,312.04v-25.62c9.6,8.89,23.27,15.59,39.12,15.59,33.1,0,60.71-23.27,60.71-66.21s-26.64-66.25-58.55-66.25c-17.28,0-31.44,7.21-41.27,17.53v-15.12h-22.08v134.31c8.23.7,15.63,2.61,22.08,5.76Zm0-102.41c9.6-14.14,22.8-20.63,37.2-20.63,23.04,0,40.31,18,40.31,46.8s-17.28,46.78-40.08,46.78c-15.12,0-27.36-5.99-37.43-18.71v-54.24Z"/><path class="cls-2" d="m212.16,172.62l-1.43,36.77c-.4,10.23-11.53,16.64-20.38,11.49-21.83-12.7-45.99-20.68-70.4-20.68-20.85,0-37.46,6.83-37.46,20.04,0,19.59,28.1,25.1,73.21,39.59,32.36,10.23,74.93,31.06,74.93,86,0,65.14-54.91,97.06-122.61,97.06-37.08,0-68-7.55-93.04-19.59-5.08-2.44-7.94-7.94-7.42-13.55l4.43-47.7c.97-10.39,12.69-16,21.3-10.1,22.45,15.39,50.33,25.39,77.71,25.39s45.55-8.11,45.55-27.25c0-22.57-36.17-31.51-77.48-45.13-33.63-11.09-68.97-34.08-68.97-81.74,0-57.93,53.64-86.87,111.97-86.87h-.29,242.57c7.6,0,13.77,6.16,13.77,13.77v38.15c0,7.6-6.16,13.77-13.77,13.77h-89.84c-7.6,0-13.77,6.16-13.77,13.77v23.28c0,7.6,6.16,13.77,13.77,13.77h67.06c7.6,0,13.77,6.16,13.77,13.77v32.91c0,7.6-6.16,13.77-13.77,13.77h-67.06c-7.6,0-13.77,6.16-13.77,13.77v36.4c0,7.6,6.16,13.77,13.77,13.77h89.84c7.6,0,13.77,6.16,13.77,13.77v38.15c0,7.6-6.16,13.77-13.77,13.77h-146.73"/><line class="cls-1" x1="552.24" y1="1.5" x2="552.24" y2="597.75"/></g></svg>