<?xml version="1.0" encoding="UTF-8"?><svg id="Layer_2" xmlns="http://www.w3.org/2000/svg" xmlns:xlink="http://www.w3.org/1999/xlink" viewBox="0 0 385.62 321.54"><defs><style>.cls-1{fill:none;stroke:url(#linear-gradient);stroke-linecap:round;stroke-linejoin:round;stroke-width:15px;}</style><linearGradient id="linear-gradient" x1="0" y1="160.77" x2="385.62" y2="160.77" gradientUnits="userSpaceOnUse"><stop offset="0" stop-color="#0f5153"/><stop offset="1" stop-color="#82c241"/></linearGradient></defs><g id="Layer_1-2"><path class="cls-1" d="m212.16,43.77l-1.43,36.77c-.4,10.23-11.53,16.64-20.38,11.49-21.83-12.7-45.99-20.68-70.4-20.68-20.85,0-37.46,6.83-37.46,20.04,0,19.59,28.1,25.1,73.21,39.59,32.36,10.23,74.93,31.06,74.93,86,0,65.14-54.91,97.06-122.61,97.06-37.08,0-68-7.55-93.04-19.59-5.08-2.44-7.94-7.94-7.42-13.55l4.43-47.7c.97-10.39,12.69-16,21.3-10.1,22.45,15.39,50.33,25.39,77.71,25.39s45.55-8.11,45.55-27.25c0-22.57-36.17-31.51-77.48-45.13-33.63-11.09-68.97-34.08-68.97-81.74C10.11,36.45,63.76,7.5,122.08,7.5h-.29,242.57c7.6,0,13.77,6.16,13.77,13.77v38.15c0,7.6-6.16,13.77-13.77,13.77h-89.84c-7.6,0-13.77,6.16-13.77,13.77v23.28c0,7.6,6.16,13.77,13.77,13.77h67.06c7.6,0,13.77,6.16,13.77,13.77v32.91c0,7.6-6.16,13.77-13.77,13.77h-67.06c-7.6,0-13.77,6.16-13.77,13.77v36.4c0,7.6,6.16,13.77,13.77,13.77h89.84c7.6,0,13.77,6.16,13.77,13.77v38.15c0,7.6-6.16,13.77-13.77,13.77h-146.73"/></g></svg>